<svg class="css-np3qrs" width="448" height="512" version="1.1" viewBox="28.601 2.8248 316.38 361.58" xmlns="http://www.w3.org/2000/svg">
 <style>#editor_f460j87c0_1 ._sw1{stroke-width:0.7062068965517241}#editor_f460j87c0_1 ._sw2{stroke-width:1.4124137931034482}#editor_f460j87c0_1 ._sd{stroke-dasharray:7.062 3.531}</style>
 <g transform="translate(-22.599)">
  <rect x="51.2" y="2.8248" width="316.38" height="361.58" display="none" fill="#edf0f5" stroke-width=".6606" data-fl-background="" data-uid="o_f460j87c0_4"/>
  <g transform="matrix(3.6248 0 0 3.6248 -450.71 -300.19)">
   <path class="UnoptimicedTransforms" d="m182.11 83.596-43.641 24.938v49.876l43.641 24.938 43.629-24.93 0.0125-0.02v-49.864z" fill="#edf0f5"/>
   <path transform="translate(102.75 -80.154)" d="m81.164 237.13 17.525-10.115c1.318-0.76155 2.1186-2.1577 2.1186-3.6808v-20.239c0-1.5133-0.81036-2.9192-2.1186-3.6808l-17.525-10.115c-1.3181-0.76155-2.929-0.76155-4.2471 0l-17.525 10.115c-1.3181 0.76154-2.1186 2.1577-2.1186 3.6808v20.239c0 1.5133 0.81036 2.9192 2.1186 3.6808l17.525 10.115c1.3181 0.76154 2.929 0.76154 4.2471 0z" fill="#a3f5c8" stroke-width=".097634" data-uid="o_f460j87c0_6"/>
   <path class="UnoptimicedTransforms" transform="translate(102.75 -80.154)" d="m79.356 163.75-43.641 24.938v49.876l43.641 24.938 43.629-24.93 0.0125-0.02v-49.864zm0 9.5999 31.035 17.732-8.3941 4.7981-22.641-12.932-22.636 12.935-8.4016-4.8018zm18.448 29.735v16.283l-14.247-8.136v-16.284zm-22.649-8.1373v16.281l-14.243 8.1385v-16.282zm0 56.556-31.043-17.737v-35.487l8.3966 4.7981v25.887l22.646 12.942zm-10.05-24.938 14.247-8.141 14.251 8.141-14.247 8.1385zm49.494 7.2008-31.043 17.737v-9.5974l22.645-12.937v-25.892l8.3966-4.7981v35.487z" fill="#40bf7e" stroke-width="1.2469" data-uid="o_f460j87c0_9"/>
  </g>
 </g>
</svg>
